<svg width="524" height="574" viewBox="0 0 524 574" fill="none" xmlns="http://www.w3.org/2000/svg">
<path d="M524 337.173C524 415.89 152.602 555.16 59.2694 555.16C-34.0628 555.16 10.7575 304.022 10.7575 225.305C10.7575 146.587 167.531 41.2038 323.321 32.47C416.653 32.47 524 258.456 524 337.173Z" fill="#DDC798"/>
<rect x="2.62" y="61.29" width="191.26" height="1.31" fill="#FFFAF5"/>
<rect x="2.62" y="77.0099" width="191.26" height="1.31" fill="#FFFAF5"/>
<rect x="2.62" y="92.73" width="191.26" height="1.31" fill="#FFFAF5"/>
<rect x="2.62" y="108.45" width="191.26" height="1.31" fill="#FFFAF5"/>
<rect x="2.62" y="124.17" width="191.26" height="1.31" fill="#FFFAF5"/>
<rect x="2.62" y="139.89" width="191.26" height="1.31" fill="#FFFAF5"/>
<rect x="2.62" y="155.61" width="191.26" height="1.31" fill="#FFFAF5"/>
<rect x="2.62" y="171.33" width="191.26" height="1.31" fill="#FFFAF5"/>
<rect x="2.62" y="187.05" width="191.26" height="1.31" fill="#FFFAF5"/>
<rect x="2.62" y="202.77" width="191.26" height="1.31" fill="#FFFAF5"/>
<rect x="2.62" y="218.49" width="191.26" height="1.31" fill="#FFFAF5"/>
<rect x="2.62" y="234.21" width="191.26" height="1.31" fill="#FFFAF5"/>
<rect x="2.62" y="249.93" width="191.26" height="1.31" fill="#FFFAF5"/>
<rect x="2.62" y="265.65" width="191.26" height="1.31" fill="#FFFAF5"/>
<rect x="2.62" y="281.37" width="191.26" height="1.31" fill="#FFFAF5"/>
<rect x="2.62" y="297.09" width="191.26" height="1.31" fill="#FFFAF5"/>
<rect x="2.62" y="312.81" width="191.26" height="1.31" fill="#FFFAF5"/>
<rect x="2.62" y="328.53" width="191.26" height="1.31" fill="#FFFAF5"/>
<path d="M187.051 488.222H217.44L215.189 520.838H184.8L187.051 488.222Z" fill="#F7ABA6"/>
<path d="M185.926 505.094H216.315V520.838H184.8L185.926 505.094Z" fill="#FDD39B"/>
<path d="M207.206 514.468C206.232 516.311 204.316 517.463 202.229 517.463H198.241C196.411 517.463 194.765 516.351 194.086 514.655C193.406 512.956 191.76 511.843 189.929 511.843H182.549V546.705H199.713L208.295 542.21H216.877L228.695 543.334L234.042 546.705H251.206L252.046 540.829C252.851 535.197 249.32 529.852 243.82 528.377L228.806 524.352C224.343 523.155 221.065 519.354 220.54 514.767L220.033 510.335C219.839 508.628 218.395 507.344 216.679 507.344H213.004C211.752 507.344 210.603 508.034 210.018 509.143L207.206 514.468Z" fill="#7A431C"/>
<path d="M182.549 537.71C183.99 539.15 186.508 539.96 188.546 539.96H252.037V546.705H230.63C230.145 545.357 228.864 544.455 227.429 544.455H227.245C226.039 544.455 224.91 545.049 224.227 546.043L223.771 546.705H214.626C213.563 545.289 211.896 544.455 210.124 544.455H208.05C206.15 544.455 204.341 545.277 203.09 546.705H182.549V537.71Z" fill="#2E1503"/>
<path d="M241.112 527.651C240.629 528.205 240.234 528.847 239.951 529.553C238.931 532.102 236.462 533.773 233.716 533.773H232.072C228.653 533.773 225.881 536.542 225.881 539.96H252.136C252.48 534.655 249.035 529.777 243.82 528.377L241.112 527.651ZM182.549 515.218H188.717C190.09 515.218 191.324 516.051 191.834 517.324C192.684 519.446 194.741 520.838 197.029 520.838H204.875C207.049 520.838 209.03 519.585 209.96 517.623L212.586 512.083C213.145 510.906 214.333 510.156 215.638 510.156H220.008C219.736 508.541 218.334 507.344 216.679 507.344H213.004C211.752 507.344 210.602 508.034 210.018 509.143L207.206 514.468C206.232 516.311 204.316 517.463 202.229 517.463H198.241C196.411 517.463 194.765 516.351 194.086 514.655C193.406 512.956 191.76 511.843 189.929 511.843H182.549V515.218Z" fill="#69340E"/>
<path d="M220.27 512.406H216.315C215.382 512.406 214.626 513.16 214.626 514.093C214.626 515.022 215.382 515.78 216.315 515.78H220.702C220.634 515.445 220.579 515.11 220.54 514.767L220.527 514.655H216.315C216.004 514.655 215.752 514.4 215.752 514.093C215.752 513.782 216.004 513.53 216.315 513.53H220.399L220.27 512.406ZM221.423 518.026H217.44C216.507 518.026 215.752 518.784 215.752 519.713C215.752 520.646 216.507 521.4 217.44 521.4H223.723C223.373 521.049 223.048 520.674 222.747 520.275H217.44C217.129 520.275 216.877 520.024 216.877 519.713C216.877 519.406 217.129 519.151 217.44 519.151H221.997C221.786 518.788 221.594 518.413 221.423 518.026Z" fill="#F6E5C8"/>
<path fill-rule="evenodd" clip-rule="evenodd" d="M211.813 509.031C211.813 516.015 212.07 521.456 215.69 525.369C219.297 529.266 226.115 531.52 238.775 532.645L238.875 531.524C226.211 530.399 219.804 528.157 216.517 524.603C213.243 521.065 212.938 516.103 212.938 509.031H211.813ZM182.549 530.399C188.958 530.399 193.241 534.679 193.241 539.96H194.367C194.367 534.057 189.58 529.274 182.549 529.274V530.399Z" fill="#69340E"/>
<path d="M310.859 444.633H341.247V477.249H310.859V444.633Z" fill="#F7ABA6"/>
<path d="M310.859 461.501H326.053H341.247V477.249H310.859V461.501Z" fill="#FDD39B"/>
<path d="M332.139 470.875C331.165 472.722 329.249 473.874 327.162 473.874H323.175C321.345 473.874 319.699 472.762 319.019 471.062C318.339 469.363 316.693 468.25 314.863 468.25H309.733L307.482 503.116H324.646L333.229 498.617H341.809L353.629 499.741L358.974 503.116H376.139L376.981 497.24C377.783 491.608 374.255 486.259 368.754 484.788L353.741 480.763C349.278 479.566 345.997 475.765 345.474 471.178L344.967 466.743C344.771 465.039 343.33 463.751 341.614 463.751H337.938C336.686 463.751 335.536 464.445 334.952 465.55L332.139 470.875Z" fill="#7A431C"/>
<path d="M308.045 494.117C309.486 495.557 311.441 496.367 313.479 496.367H376.969V503.116H355.565C355.078 501.768 353.797 500.866 352.364 500.866H352.18C350.975 500.866 349.845 501.461 349.162 502.454L348.703 503.116H339.558C338.496 501.7 336.829 500.866 335.058 500.866H332.984C331.083 500.866 329.275 501.688 328.023 503.116H307.482L308.045 494.117Z" fill="#2E1503"/>
<path d="M366.043 484.062C365.564 484.616 365.169 485.254 364.886 485.964C363.864 488.513 361.397 490.18 358.651 490.18H357.006C353.585 490.18 350.815 492.953 350.815 496.367H377.069C377.412 491.062 373.967 486.184 368.754 484.788L366.043 484.062ZM309.515 471.625H313.651C315.024 471.625 316.258 472.458 316.768 473.735C317.618 475.857 319.675 477.249 321.963 477.249H329.808C331.983 477.249 333.963 475.996 334.894 474.034L337.519 468.494C338.078 467.317 339.267 466.563 340.572 466.563H344.943C344.668 464.948 343.266 463.751 341.614 463.751H337.938C336.686 463.751 335.536 464.445 334.952 465.55L332.139 470.875C331.165 472.722 329.25 473.874 327.162 473.874H323.175C321.345 473.874 319.699 472.762 319.019 471.062C318.339 469.363 316.693 468.25 314.863 468.25H309.733L309.515 471.625Z" fill="#69340E"/>
<path d="M345.202 468.813H341.247C340.316 468.813 339.558 469.571 339.558 470.5C339.558 471.433 340.316 472.187 341.247 472.187H345.638C345.566 471.856 345.514 471.517 345.474 471.178L345.462 471.062H341.247C340.935 471.062 340.684 470.811 340.684 470.5C340.684 470.189 340.935 469.938 341.247 469.938H345.33L345.202 468.813ZM346.356 474.437H342.372C341.442 474.437 340.684 475.191 340.684 476.124C340.684 477.053 341.442 477.811 342.372 477.811H348.655C348.308 477.456 347.981 477.081 347.681 476.686H342.372C342.061 476.686 341.809 476.435 341.809 476.124C341.809 475.813 342.061 475.562 342.372 475.562H346.931C346.719 475.199 346.528 474.824 346.356 474.437Z" fill="#F6E5C8"/>
<path fill-rule="evenodd" clip-rule="evenodd" d="M336.746 465.438C336.746 472.427 337.004 477.863 340.624 481.776C344.228 485.677 351.046 487.931 363.708 489.056L363.808 487.935C351.146 486.81 344.735 484.568 341.45 481.014C338.177 477.476 337.871 472.51 337.871 465.438H336.746ZM308.608 486.81C313.891 486.81 318.174 491.09 318.174 496.367H319.3C319.3 490.468 314.513 485.685 308.608 485.685V486.81Z" fill="#69340E"/>
<path d="M292.287 260.75L228.695 261.312L228.735 261.593L180.298 263.29L184.8 384.192L181.986 494.971H223.63L246.141 307.714L299.885 354.941L303.543 456.735H347.438L351.11 342.473C351.282 337.098 349.522 331.841 346.148 327.651L292.287 260.75Z" fill="#CD8C38"/>
<path d="M246.704 290.844L223.63 495.533H181.986" stroke="#8E4B0C" stroke-width="5.53999" stroke-linecap="round"/>
<path d="M142.03 99.3596H261.335V268.06H149.908C145.557 268.06 142.03 264.535 142.03 260.187V99.3596Z" fill="#495927"/>
<path d="M221.379 276.495C196.055 297.301 180.298 285.492 180.298 285.492V261.312H292.287C284.972 271.434 235.448 264.936 221.379 276.495Z" fill="#CB712F"/>
<path fill-rule="evenodd" clip-rule="evenodd" d="M214.983 280.231C212.067 283.228 208.034 285.707 202.808 286.021C202.188 286.059 201.683 285.551 201.683 284.93C201.683 284.309 202.188 283.81 202.808 283.767C207.291 283.459 210.776 281.328 213.369 278.663C215.785 276.181 217.392 273.265 218.247 271.04C218.469 270.46 219.097 270.127 219.691 270.309C220.285 270.492 220.621 271.122 220.402 271.704C219.462 274.203 217.685 277.454 214.983 280.231Z" fill="#8E4B0C"/>
<path d="M237.7 52.1237C225.578 52.1237 215.752 61.9424 215.752 74.0546V98.7976" stroke="#495A27" stroke-width="22.1626"/>
<path d="M151.034 55.4978V99.3596H261.335V99.3528C273.197 99.0544 282.721 89.353 282.721 77.4287C282.721 65.5044 273.197 55.8029 261.335 55.5046V55.4978H151.034Z" fill="#DB552B"/>
<path d="M281.472 84.7393H155.536V99.3596H261.335V99.3528C270.647 99.1187 278.518 93.0893 281.472 84.7393Z" fill="#C04923"/>
<path d="M178.047 55.4978H160.83C165.348 51.31 171.399 48.7496 178.047 48.7496C192.033 48.7496 203.372 60.0793 203.372 74.0546V99.3596H196.618V74.0546C196.618 63.8059 188.304 55.4978 178.047 55.4978Z" fill="#7A431C"/>
<path d="M152.722 99.3596C164.844 99.3596 174.67 89.5408 174.67 77.4287C174.67 65.3166 164.844 55.4978 152.722 55.4978C140.601 55.4978 130.775 65.3166 130.775 77.4287C130.775 89.5408 140.601 99.3596 152.722 99.3596Z" fill="#D04219"/>
<path d="M237.137 52.1237C249.258 52.1237 259.085 61.9424 259.085 74.0546V99.922" stroke="#495A27" stroke-width="22.1626"/>
<path d="M152.723 92.6118C161.115 92.6118 167.917 85.8141 167.917 77.4287C167.917 69.0433 161.115 62.2455 152.723 62.2455C144.331 62.2455 137.528 69.0433 137.528 77.4287C137.528 85.8141 144.331 92.6118 152.723 92.6118Z" stroke="#DC5531" stroke-width="7.38709"/>
<path d="M152.722 83.6144C156.141 83.6144 158.913 80.845 158.913 77.4287C158.913 74.0124 156.141 71.2429 152.722 71.2429C149.303 71.2429 146.532 74.0124 146.532 77.4287C146.532 80.845 149.303 83.6144 152.722 83.6144Z" stroke="#DC5531" stroke-width="7.38709"/>
<path d="M260.773 99.922H175.233V221.386H260.773V99.922Z" stroke="black" stroke-width="3.6942"/>
<path d="M145.406 136.474H139.779C139.157 136.474 138.653 136.977 138.653 137.598V179.211C138.653 179.832 139.157 180.336 139.779 180.336H145.406C146.028 180.336 146.532 179.832 146.532 179.211V137.598C146.532 136.977 146.028 136.474 145.406 136.474Z" fill="#7A431C"/>
<path d="M127.398 110.606C127.398 104.395 132.437 99.3596 138.653 99.3596H261.335V152.219H131.9C129.413 152.219 127.398 150.205 127.398 147.72V110.606Z" fill="#2B3B0A"/>
<path d="M206.185 179.211H133.026C126.81 179.211 121.77 184.246 121.77 190.458V246.691C121.77 252.903 126.81 257.938 133.026 257.938H206.185C212.401 257.938 217.44 252.903 217.44 246.691V190.458C217.44 184.246 212.401 179.211 206.185 179.211Z" fill="#2B3C0A"/>
<path d="M142.03 99.3596H170.168C172.654 99.3596 174.67 101.374 174.67 103.858V268.06H151.034C146.061 268.06 142.03 264.032 142.03 259.063V99.3596Z" fill="#3A4A16"/>
<path d="M147.438 267.314C144.255 265.927 142.03 262.755 142.03 259.063V240.908L154.82 228.128L162.779 236.08L170.168 240.506V244.442L147.438 267.314Z" fill="#304207"/>
<path d="M155.536 99.3596H158.913V131.413C158.913 132.344 158.157 133.1 157.224 133.1C156.292 133.1 155.536 132.344 155.536 131.413V99.3596Z" fill="#2B3B0A"/>
<path d="M133.026 179.211H135.277V201.704C135.277 202.326 134.773 202.829 134.151 202.829C133.53 202.829 133.026 202.326 133.026 201.704V179.211Z" fill="#202E05"/>
<path d="M161.164 199.455H154.411V203.954H161.164V199.455Z" fill="#B1320A"/>
<path d="M169.043 208.452C169.043 204.726 166.019 201.705 162.289 201.705H153.285C149.556 201.705 146.532 204.726 146.532 208.452V234.32H169.043V208.452Z" fill="#D34316"/>
<path d="M169.043 234.32H149.908V208.452C149.908 204.726 153.335 201.705 157.562 201.705H161.389C166.229 201.705 169.043 204.726 169.043 208.452V234.32Z" fill="#DB552B"/>
<path d="M161.164 193.832H154.411C153.789 193.832 153.285 194.336 153.285 194.957V199.455C153.285 200.077 153.789 200.58 154.411 200.58H161.164C161.785 200.58 162.289 200.077 162.289 199.455V194.957C162.289 194.336 161.785 193.832 161.164 193.832Z" fill="#D04219"/>
<path d="M145.407 214.076H170.168V242.193C170.168 245.298 167.648 247.816 164.54 247.816H157.787H151.034C147.926 247.816 145.407 245.298 145.407 242.193V214.076Z" fill="#2B3B0A"/>
<path d="M220.031 71.799C208.225 71.0251 209.522 61.4873 209.764 47.9933L225.589 44.3397C226.443 49.0416 226.527 61.1167 220.031 71.799Z" fill="#241B14"/>
<path d="M229.03 32.5042C221.83 32.1181 215.824 37.9377 215.989 45.141L216.284 58.0194C216.304 58.9057 216.475 59.782 216.79 60.6109C217.106 61.4442 217.37 61.3026 217.39 62.1901L218.016 90.0414L216.553 108.856L247.387 108.846L247.769 87.4807L249.616 87.5134C255.831 87.6247 260.96 82.6806 261.071 76.4701L261.595 47.2379C262.315 40.2073 257.004 34.0044 249.942 33.6255L229.03 32.5042Z" fill="#F7ABA6"/>
<path d="M232.7 87.2107L249.018 87.5031L248.897 94.25L232.7 87.2107Z" fill="#DB7D76"/>
<path d="M241.7 55.7524C242.632 55.7691 243.401 55.0275 243.418 54.096C243.435 53.1646 242.693 52.3959 241.761 52.3793C240.828 52.3626 240.059 53.1042 240.042 54.0356C240.026 54.9671 240.768 55.7357 241.7 55.7524Z" fill="#241B14"/>
<path fill-rule="evenodd" clip-rule="evenodd" d="M244.223 49.7213C241.818 48.3145 238.781 48.8166 236.952 50.8501C236.745 51.0811 236.394 51.1361 236.144 50.9518C235.894 50.7671 235.84 50.4129 236.044 50.1788C238.218 47.6846 241.89 47.0536 244.792 48.7508L245.204 48.9914C245.472 49.1485 245.562 49.4927 245.405 49.7608C245.248 50.0288 244.903 50.119 244.635 49.9622L244.223 49.7213Z" fill="#241B14"/>
<path d="M255.21 56.1178C256.142 56.1344 256.911 55.3929 256.928 54.4614C256.945 53.5299 256.202 52.7613 255.27 52.7446C254.338 52.7279 253.569 53.4695 253.552 54.401C253.536 55.3325 254.278 56.1011 255.21 56.1178Z" fill="#241B14"/>
<path fill-rule="evenodd" clip-rule="evenodd" d="M251.717 49.9789C254.171 48.6591 257.188 49.2693 258.943 51.367C259.142 51.6052 259.491 51.673 259.747 51.4975C260.003 51.322 260.07 50.9701 259.875 50.7288C257.792 48.1585 254.144 47.3962 251.184 48.9885L250.764 49.2143C250.49 49.3615 250.388 49.7025 250.535 49.9758C250.682 50.2494 251.024 50.3519 251.297 50.2047L251.717 49.9789Z" fill="#241B14"/>
<path d="M240.513 199.018H259.71V209.134L250.635 219.668H240.513V199.018Z" stroke="black" stroke-width="3.6942"/>
<path d="M243.89 194.519H263.086V204.636L254.012 215.169H243.89V194.519Z" stroke="black" stroke-width="3.6942"/>
<path d="M241.076 198.456H261.398V209.343L252.019 220.231H241.076V198.456Z" fill="#2B3B0A"/>
<path d="M248.205 199.736L274.78 181.163V171.557H290.413V179.417C290.413 182.141 289.178 184.719 287.054 186.427L248.205 217.668V199.736Z" fill="#2B3B0A"/>
<path d="M261.107 117.529C261.091 108.295 268.572 100.798 277.814 100.786C285.476 100.776 292.165 105.969 294.05 113.391L312.548 186.25L288.844 197.986C276.139 204.277 261.239 195.056 261.215 180.887L261.107 117.529Z" fill="#255340"/>
<path d="M217.44 90.3622C215.575 90.3622 214.064 91.8727 214.064 93.7363V98.449C214.064 99.6045 213.187 100.572 212.037 100.687L191.584 102.734C187.479 102.734 183.78 105.209 182.217 109.002L177.497 120.456C177.118 121.376 176.947 122.368 176.997 123.362L182.217 203.392L180.298 246.691C180.298 250.418 183.321 257.938 187.051 257.938H283.745C287.514 257.938 293.93 250.356 293.874 246.59L288.541 197.206V115.666C288.434 108.493 283.147 100.484 275.967 100.484H256.271C255.028 100.484 254.02 99.4773 254.02 98.2348V93.7363C254.02 91.8727 252.508 90.3622 250.643 90.3622H217.44Z" fill="#2A5F49"/>
<path d="M233.157 210.702L230.233 209.015C229.694 208.704 229.006 208.889 228.695 209.427L216.877 229.88C216.566 230.418 216.751 231.106 217.289 231.417L220.213 233.104C220.752 233.414 221.44 233.23 221.751 232.692L233.569 212.238C233.88 211.7 233.695 211.012 233.157 210.702Z" fill="#1A4E38"/>
<path fill-rule="evenodd" clip-rule="evenodd" d="M254.02 101.609H266.594C270.639 101.609 274.026 104.669 274.433 108.69L280.47 168.339C280.47 170.824 282.485 172.838 284.972 172.838H297.353L290.599 110.606C290.599 105.637 286.568 101.609 281.595 101.609H282.721C282.721 99.7456 281.209 98.2351 279.344 98.2351H254.02V101.609Z" fill="#2B3B0A"/>
<path d="M269.064 210.702L271.988 209.015C272.526 208.704 273.214 208.889 273.525 209.427L285.343 229.88C285.654 230.418 285.47 231.106 284.931 231.417L282.007 233.104C281.469 233.414 280.78 233.23 280.47 232.692L268.652 212.238C268.341 211.7 268.525 211.012 269.064 210.702Z" fill="#1A4E38"/>
<path d="M279.344 164.59H290.599V179.211C284.383 179.211 279.344 174.176 279.344 167.964V164.59ZM182.925 219.98L199.891 208.123C205.912 203.914 209.499 197.034 209.499 189.691V170.432H225.132V193.199C225.132 200.009 222.044 206.452 216.735 210.722L182.925 237.912V219.98Z" fill="#2B3B0A"/>
<path d="M187.976 216.451L182.925 219.981V237.913L195.893 227.484C196.04 227.18 196.118 226.845 196.118 226.503V218.7C196.118 217.457 195.11 216.451 193.867 216.451H187.976Z" fill="#263408"/>
<path d="M173.545 220.949C173.545 219.707 174.553 218.7 175.796 218.7H191.616C192.859 218.7 193.867 219.707 193.867 220.949V228.752C193.867 229.291 193.673 229.812 193.322 230.22L185.161 239.693C184.733 240.189 184.11 240.474 183.455 240.474H175.796C174.553 240.474 173.545 239.468 173.545 238.225V220.949Z" fill="#2B3B0A"/>
<path d="M197.181 184.001L206.748 116.521L179.735 146.034C179.172 147.346 176.921 152.669 176.921 167.965C176.921 167.965 178.61 199.184 197.181 184.001Z" fill="#235842"/>
<path d="M220.817 91.487V100.484M232.072 91.487V100.484" stroke="#1A4E38" stroke-width="3.6942"/>
<path d="M197.181 100.484H218.566C224.782 100.484 229.821 105.52 229.821 111.731V164.965C229.821 168.692 226.797 171.713 223.068 171.713H209.499V114.514C209.499 110.678 207.542 107.106 204.308 105.04L197.181 100.484Z" fill="#2B3B0A"/>
<path d="M225.319 164.59H214.064V179.211C220.28 179.211 225.319 174.176 225.319 167.964V164.59Z" fill="#2B3B0A"/>
<path d="M247.267 102.462L247.83 115.958L251.769 215.492L252.87 220.626C255.45 232.659 254.28 245.193 249.518 256.542" stroke="#1A4E38" stroke-width="7.38709"/>
<path d="M176.921 244.442C176.921 243.2 177.929 242.193 179.172 242.193H292.851C294.094 242.193 295.102 243.2 295.102 244.442V259.063C295.102 260.305 294.094 261.312 292.851 261.312H179.172C177.929 261.312 176.921 260.305 176.921 259.063V244.442Z" fill="#2A5F49"/>
<path fill-rule="evenodd" clip-rule="evenodd" d="M177.484 242.192C177.484 241.882 177.736 241.63 178.047 241.63H293.976C294.286 241.63 294.539 241.882 294.539 242.192C294.539 242.503 294.286 242.755 293.976 242.755H178.047C177.736 242.755 177.484 242.503 177.484 242.192Z" fill="#1A4E38"/>
<path d="M174.67 99.9219C174.67 98.9902 175.426 98.2351 176.358 98.2351H217.44C219.305 98.2351 220.817 99.7456 220.817 101.609H176.358C175.426 101.609 174.67 100.854 174.67 99.9219Z" fill="#2B3B0A"/>
<path d="M174.564 109.546C178.205 101.87 186.815 97.8905 195.026 100.089C205.519 102.898 210.986 114.441 206.507 124.331L172.471 199.485C170.433 203.985 165.696 206.63 160.793 206.005L146.026 204.123C138.434 203.155 134.001 195.061 137.28 188.15L174.564 109.546Z" fill="#255340"/>
<path d="M191.894 160.327C194.644 158.964 197.98 160.054 199.392 162.778L208.711 180.751C210.11 183.45 209.11 186.772 206.452 188.251L160.832 213.642C154.155 217.358 145.726 214.803 142.24 208.007L139.049 201.785C135.616 195.09 138.323 186.883 145.067 183.54L191.894 160.327Z" fill="#255340"/>
<path d="M206.518 153.197L225.929 142.37C228.189 141.109 231.112 141.948 232.331 144.206L234.101 147.485L237.816 162.497C238.552 165.476 237.267 168.553 234.607 170.178L226.231 175.295C224.22 176.524 221.873 177.158 219.476 177.122L215.443 179.212L208.132 170.887L201.37 161.511L203.765 159.466L206.518 153.197Z" fill="#F7ABA6"/>
<path d="M206.054 154.602L206.296 152.591C206.437 151.423 206.835 150.301 207.462 149.305C208.458 147.725 209.98 146.545 211.761 145.975L221.87 142.736C223.932 142.075 226.185 142.397 227.979 143.609L228.049 143.657C228.158 143.73 228.233 143.843 228.259 143.971C228.749 146.406 227.37 148.829 225.026 149.653L207.545 155.797C206.758 156.074 205.954 155.429 206.054 154.602Z" fill="#F7ABA6"/>
<path d="M216.743 177.566L205.449 156.935C205.15 156.39 204.466 156.19 203.921 156.488L197.139 160.195C196.594 160.493 196.394 161.176 196.692 161.721L207.986 182.352C208.284 182.897 208.968 183.098 209.514 182.8L216.295 179.093C216.841 178.795 217.041 178.111 216.743 177.566Z" fill="#255340"/>
<path d="M209.986 35.6119C210.199 23.7262 219.219 13.8511 231.045 12.5572L236.721 11.9361C236.816 11.9257 236.912 11.9275 237.006 11.9412L242.657 12.765C254.429 14.4813 263.09 24.6732 262.877 36.5588L262.766 42.7549C262.755 43.376 262.242 43.8706 261.62 43.8594L210.98 42.9528C210.358 42.9416 209.863 42.4294 209.875 41.8084L209.986 35.6119Z" fill="#BD4C00"/>
<path fill-rule="evenodd" clip-rule="evenodd" d="M257.12 43.7792C257.741 43.7904 258.254 43.2958 258.265 42.6748L258.386 35.9462C258.595 24.2907 250.262 14.2265 238.766 12.2479L237.036 11.9501C236.986 11.9416 236.937 11.9364 236.886 11.9345C236.822 11.9323 236.758 11.9354 236.694 11.944L234.955 12.1796C223.394 13.7455 214.706 23.5053 214.498 35.1604L214.377 41.8894C214.366 42.51 214.86 43.0226 215.482 43.0338L257.12 43.7792ZM257.14 42.6548L257.261 35.9262C257.434 26.2204 251.39 17.6733 242.549 14.4189C247.575 17.7609 250.729 23.4977 250.616 29.7947L250.388 42.534L257.14 42.6548ZM222.483 29.2913C222.596 22.9939 225.953 17.3738 231.096 14.2139C222.144 17.1498 215.797 25.4749 215.623 35.1807L215.502 41.9093L222.254 42.0302L222.483 29.2913ZM223.608 29.3113L223.38 42.0505L230.132 42.1714L230.495 21.9333C230.548 18.9129 231.798 16.0891 233.891 14.0311C227.842 16.6163 223.729 22.5476 223.608 29.3113ZM239.762 14.1362C245.714 16.9362 249.612 23.0107 249.491 29.7748L249.262 42.5136L242.51 42.3928L242.873 22.1547C242.927 19.1345 241.78 16.2678 239.762 14.1362ZM241.385 42.3728L241.748 22.1347C241.813 18.4925 239.94 15.0983 236.842 13.2075C233.679 14.9862 231.685 18.3113 231.62 21.9533L231.257 42.1913L241.385 42.3728Z" fill="#D56011"/>
<path d="M233.486 43.356L209.854 42.9332L209.703 51.3666C211.317 50.596 218.498 51.6418 221.26 52.0375C221.745 52.1069 222.131 52.4779 222.218 52.9597L223.096 57.7933L224.784 57.8232C225.405 57.8344 225.893 57.3318 226.033 56.7267C226.723 53.7383 230.11 55.3454 232.199 52.3319C234.511 48.9985 233.486 43.356 233.486 43.356Z" fill="#241B14"/>
<path d="M262.846 38.257L209.955 37.3105C209.334 37.2994 208.821 37.7939 208.809 38.415L208.689 45.1617C208.677 45.7828 209.172 46.2953 209.794 46.3064L262.685 47.253C263.306 47.2641 263.819 46.7696 263.831 46.1484L263.951 39.4018C263.963 38.7807 263.468 38.2681 262.846 38.257Z" fill="#9F4000"/>
<path d="M224.194 55.5632C224.633 62.3201 221.626 62.2663 217.918 62.1997C214.209 62.1335 211.816 59.0689 211.883 55.3426C211.95 51.6164 214.451 48.6396 218.16 48.7062C221.868 48.7724 224.261 51.8369 224.194 55.5632Z" fill="#F7ABA6"/>
<path fill-rule="evenodd" clip-rule="evenodd" d="M216.446 52.7359C216.692 52.5461 217.046 52.5908 217.236 52.8365L220.159 56.609C220.35 56.8547 220.305 57.2077 220.059 57.398C219.813 57.5883 219.46 57.5432 219.269 57.2979L216.346 53.5249C216.156 53.2796 216.2 52.9262 216.446 52.7359Z" fill="#D5726B"/>
<path d="M217.792 39.7005L213.291 39.62C212.669 39.6089 212.156 40.1034 212.145 40.7245L212.105 42.973C212.094 43.5941 212.588 44.1067 213.21 44.1178L217.711 44.1983C218.333 44.2094 218.846 43.7149 218.857 43.0938L218.897 40.8453C218.908 40.2242 218.413 39.7117 217.792 39.7005Z" fill="#FBBC91"/>
<path d="M238.542 12.7838C238.566 12.6772 238.54 12.626 238.542 12.5128C238.559 11.5813 237.817 10.8125 236.885 10.7959C235.953 10.7792 235.183 11.5208 235.167 12.4524C235.165 12.5656 235.174 12.6764 235.193 12.7838H238.542Z" fill="#BD4C00"/>
<path d="M249.083 59.376L250.64 66.7157L247.827 66.6651" stroke="black" stroke-width="3.6942" stroke-linecap="round" stroke-linejoin="round"/>
<path d="M251.545 71.5859L243.519 70.9226C243.177 70.8943 242.889 71.1755 242.935 71.5153C243.199 73.4718 244.199 76.1132 247.128 75.891C249.994 75.6732 251.507 73.7123 252.004 72.2273C252.108 71.9158 251.873 71.6131 251.545 71.5859Z" fill="white"/>
<path fill-rule="evenodd" clip-rule="evenodd" d="M252.013 72.1982L242.948 71.6147C242.943 71.5816 242.939 71.5489 242.934 71.5162C242.888 71.1763 243.177 70.8947 243.519 70.923L251.545 71.5864C251.862 71.6127 252.093 71.8971 252.013 72.1982Z" fill="#D4726B"/>
<path d="M284.972 536.585C284.972 517.95 300.089 502.845 318.737 502.845H372.849C376.961 502.845 380.745 505.082 382.721 508.684L389.084 520.275L398.381 522.84C402.652 524.017 405.838 527.591 406.512 531.97L408.78 546.705H284.972V536.585Z" fill="#2B3B0A"/>
<path d="M305.422 210.507L311.99 206.916C317.21 204.062 319.66 197.901 317.824 192.246L300.729 139.576L294.539 144.637L279.861 167.452C279.53 167.966 279.423 168.591 279.564 169.185L287.429 202.495C289.307 210.448 298.248 214.429 305.422 210.507Z" fill="#255340"/>
<path d="M271.178 148.291C271.006 147.397 271.39 146.486 272.152 145.986L279.206 141.353C282.737 139.034 287.271 138.886 290.946 140.972L293.225 142.265C294.815 143.168 295.868 144.787 296.046 146.606L298.004 166.549C298.335 169.914 295.641 172.807 292.259 172.72L282.838 172.477C281.254 172.436 279.912 171.302 279.61 169.748L277.575 159.287L275.936 159.789C274.656 160.181 273.32 159.377 273.066 158.065L271.178 148.291Z" fill="#F7ABA6"/>
<path d="M237.7 52.1237C225.578 52.1237 215.752 61.9424 215.752 74.0546V98.7976" stroke="#495A27" stroke-width="22.1626"/>
<path d="M151.034 55.4978V99.3596H261.335V99.3528C273.197 99.0544 282.721 89.353 282.721 77.4287C282.721 65.5044 273.197 55.8029 261.335 55.5046V55.4978H151.034Z" fill="#DB552B"/>
<path d="M281.472 84.7393H155.536V99.3596H261.335V99.3528C270.647 99.1187 278.518 93.0893 281.472 84.7393Z" fill="#C04923"/>
<path d="M178.047 55.4978H160.83C165.348 51.31 171.399 48.7496 178.047 48.7496C192.033 48.7496 203.372 60.0793 203.372 74.0546V99.3596H196.618V74.0546C196.618 63.8059 188.304 55.4978 178.047 55.4978Z" fill="#7A431C"/>
<path d="M152.722 99.3596C164.844 99.3596 174.67 89.5408 174.67 77.4287C174.67 65.3166 164.844 55.4978 152.722 55.4978C140.601 55.4978 130.775 65.3166 130.775 77.4287C130.775 89.5408 140.601 99.3596 152.722 99.3596Z" fill="#D04219"/>
<path d="M237.137 52.1237C249.258 52.1237 259.085 61.9424 259.085 74.0546V99.922" stroke="#495A27" stroke-width="22.1626"/>
<path d="M152.723 92.6118C161.115 92.6118 167.917 85.8141 167.917 77.4287C167.917 69.0433 161.115 62.2455 152.723 62.2455C144.331 62.2455 137.528 69.0433 137.528 77.4287C137.528 85.8141 144.331 92.6118 152.723 92.6118Z" stroke="#DC5531" stroke-width="7.38709"/>
<path d="M152.722 83.6144C156.141 83.6144 158.913 80.845 158.913 77.4287C158.913 74.0124 156.141 71.2429 152.722 71.2429C149.303 71.2429 146.532 74.0124 146.532 77.4287C146.532 80.845 149.303 83.6144 152.722 83.6144Z" stroke="#DC5531" stroke-width="7.38709"/>
<path d="M260.773 99.922H175.233V221.386H260.773V99.922Z" stroke="black" stroke-width="3.6942"/>
<path d="M145.406 136.474H139.779C139.157 136.474 138.653 136.977 138.653 137.598V179.211C138.653 179.832 139.157 180.336 139.779 180.336H145.406C146.028 180.336 146.532 179.832 146.532 179.211V137.598C146.532 136.977 146.028 136.474 145.406 136.474Z" fill="#7A431C"/>
<path d="M127.398 110.606C127.398 104.395 132.437 99.3596 138.653 99.3596H261.335V152.219H131.9C129.413 152.219 127.398 150.205 127.398 147.72V110.606Z" fill="#2B3B0A"/>
<path d="M206.185 179.211H133.026C126.81 179.211 121.77 184.246 121.77 190.458V246.691C121.77 252.903 126.81 257.938 133.026 257.938H206.185C212.401 257.938 217.44 252.903 217.44 246.691V190.458C217.44 184.246 212.401 179.211 206.185 179.211Z" fill="#2B3C0A"/>
<path d="M142.03 99.3596H170.168C172.654 99.3596 174.67 101.374 174.67 103.858V268.06H151.034C146.061 268.06 142.03 264.032 142.03 259.063V99.3596Z" fill="#3A4A16"/>
<path d="M147.438 267.314C144.255 265.927 142.03 262.755 142.03 259.063V240.908L154.82 228.128L162.779 236.08L170.168 240.506V244.442L147.438 267.314Z" fill="#304207"/>
<path d="M155.536 99.3596H158.913V131.413C158.913 132.344 158.157 133.1 157.224 133.1C156.292 133.1 155.536 132.344 155.536 131.413V99.3596Z" fill="#2B3B0A"/>
<path d="M133.026 179.211H135.277V201.704C135.277 202.326 134.773 202.829 134.151 202.829C133.53 202.829 133.026 202.326 133.026 201.704V179.211Z" fill="#202E05"/>
<path d="M161.164 199.455H154.411V203.954H161.164V199.455Z" fill="#B1320A"/>
<path d="M169.043 208.452C169.043 204.726 166.019 201.705 162.289 201.705H153.285C149.556 201.705 146.532 204.726 146.532 208.452V234.32H169.043V208.452Z" fill="#D34316"/>
<path d="M169.043 234.32H149.908V208.452C149.908 204.726 153.335 201.705 157.562 201.705H161.389C166.229 201.705 169.043 204.726 169.043 208.452V234.32Z" fill="#DB552B"/>
<path d="M161.164 193.832H154.411C153.789 193.832 153.285 194.336 153.285 194.957V199.455C153.285 200.077 153.789 200.58 154.411 200.58H161.164C161.785 200.58 162.289 200.077 162.289 199.455V194.957C162.289 194.336 161.785 193.832 161.164 193.832Z" fill="#D04219"/>
<path d="M145.407 214.076H170.168V242.193C170.168 245.298 167.648 247.816 164.54 247.816H157.787H151.034C147.926 247.816 145.407 245.298 145.407 242.193V214.076Z" fill="#2B3B0A"/>
<path d="M220.031 71.799C208.225 71.0251 209.522 61.4873 209.764 47.9933L225.589 44.3397C226.443 49.0416 226.527 61.1167 220.031 71.799Z" fill="#241B14"/>
<path d="M229.03 32.5042C221.83 32.1181 215.824 37.9377 215.989 45.141L216.284 58.0194C216.304 58.9057 216.475 59.782 216.79 60.6109C217.106 61.4442 217.37 61.3026 217.39 62.1901L218.016 90.0414L216.553 108.856L247.387 108.846L247.769 87.4807L249.616 87.5134C255.831 87.6247 260.96 82.6806 261.071 76.4701L261.595 47.2379C262.315 40.2073 257.004 34.0044 249.942 33.6255L229.03 32.5042Z" fill="#F7ABA6"/>
<path d="M232.7 87.2107L249.018 87.5031L248.897 94.25L232.7 87.2107Z" fill="#CE5E56"/>
<path d="M241.7 55.7524C242.632 55.7691 243.401 55.0275 243.418 54.096C243.435 53.1646 242.693 52.3959 241.761 52.3793C240.828 52.3626 240.059 53.1042 240.042 54.0356C240.026 54.9671 240.768 55.7357 241.7 55.7524Z" fill="#241B14"/>
<path fill-rule="evenodd" clip-rule="evenodd" d="M244.223 49.7213C241.818 48.3145 238.781 48.8166 236.952 50.8501C236.745 51.0811 236.394 51.1361 236.144 50.9518C235.894 50.7671 235.84 50.4129 236.044 50.1788C238.218 47.6846 241.89 47.0536 244.792 48.7508L245.204 48.9914C245.472 49.1485 245.562 49.4927 245.405 49.7608C245.248 50.0288 244.903 50.119 244.635 49.9622L244.223 49.7213Z" fill="#241B14"/>
<path d="M255.21 56.1178C256.142 56.1344 256.911 55.3929 256.928 54.4614C256.945 53.5299 256.202 52.7613 255.27 52.7446C254.338 52.7279 253.569 53.4695 253.552 54.401C253.536 55.3325 254.278 56.1011 255.21 56.1178Z" fill="#241B14"/>
<path fill-rule="evenodd" clip-rule="evenodd" d="M251.717 49.9789C254.171 48.6591 257.188 49.2693 258.943 51.367C259.142 51.6052 259.491 51.673 259.747 51.4975C260.003 51.322 260.07 50.9701 259.875 50.7288C257.792 48.1585 254.144 47.3962 251.184 48.9885L250.764 49.2143C250.49 49.3615 250.388 49.7025 250.535 49.9758C250.682 50.2494 251.024 50.3519 251.297 50.2047L251.717 49.9789Z" fill="#241B14"/>
<path d="M240.513 199.018H259.71V209.134L250.635 219.668H240.513V199.018Z" stroke="black" stroke-width="3.6942"/>
<path d="M243.89 194.519H263.086V204.636L254.012 215.169H243.89V194.519Z" stroke="black" stroke-width="3.6942"/>
<path d="M241.076 198.456H261.398V209.343L252.019 220.231H241.076V198.456Z" fill="#2B3B0A"/>
<path d="M248.205 199.736L274.78 181.163V171.557H290.413V179.417C290.413 182.141 289.178 184.719 287.054 186.427L248.205 217.668V199.736Z" fill="#2B3B0A"/>
<path d="M261.107 117.529C261.091 108.295 268.572 100.798 277.814 100.786C285.476 100.776 292.165 105.969 294.05 113.391L312.548 186.25L288.844 197.986C276.139 204.277 261.239 195.056 261.215 180.887L261.107 117.529Z" fill="#255340"/>
<path d="M217.44 90.3622C215.575 90.3622 214.064 91.8727 214.064 93.7363V98.449C214.064 99.6045 213.187 100.572 212.037 100.687L191.584 102.734C187.479 102.734 183.78 105.209 182.217 109.002L177.497 120.456C177.118 121.376 176.947 122.368 176.997 123.362L182.217 203.392L180.298 246.691C180.298 250.418 183.321 257.938 187.051 257.938H283.745C287.514 257.938 293.93 250.356 293.874 246.59L288.541 197.206V115.666C288.434 108.493 283.147 100.484 275.967 100.484H256.271C255.028 100.484 254.02 99.4773 254.02 98.2348V93.7363C254.02 91.8727 252.508 90.3622 250.643 90.3622H217.44Z" fill="#2A5F49"/>
<path d="M233.157 210.702L230.233 209.015C229.694 208.704 229.006 208.889 228.695 209.427L216.877 229.88C216.566 230.418 216.751 231.106 217.289 231.417L220.213 233.104C220.752 233.414 221.44 233.23 221.751 232.692L233.569 212.238C233.88 211.7 233.695 211.012 233.157 210.702Z" fill="#1A4E38"/>
<path fill-rule="evenodd" clip-rule="evenodd" d="M254.02 101.609H266.594C270.639 101.609 274.026 104.669 274.433 108.69L280.47 168.339C280.47 170.824 282.485 172.838 284.972 172.838H297.353L290.599 110.606C290.599 105.637 286.568 101.609 281.595 101.609H282.721C282.721 99.7456 281.209 98.2351 279.344 98.2351H254.02V101.609Z" fill="#2B3B0A"/>
<path d="M269.064 210.702L271.988 209.015C272.526 208.704 273.214 208.889 273.525 209.427L285.343 229.88C285.654 230.418 285.47 231.106 284.931 231.417L282.007 233.104C281.469 233.414 280.78 233.23 280.47 232.692L268.652 212.238C268.341 211.7 268.525 211.012 269.064 210.702Z" fill="#1A4E38"/>
<path d="M279.344 164.59H290.599V179.211C284.383 179.211 279.344 174.176 279.344 167.964V164.59ZM182.925 219.98L199.891 208.123C205.912 203.914 209.499 197.034 209.499 189.691V170.432H225.132V193.199C225.132 200.009 222.044 206.452 216.735 210.722L182.925 237.912V219.98Z" fill="#2B3B0A"/>
<path d="M187.976 216.451L182.925 219.981V237.913L195.893 227.484C196.04 227.18 196.118 226.845 196.118 226.503V218.7C196.118 217.457 195.11 216.451 193.867 216.451H187.976Z" fill="#263408"/>
<path d="M173.545 220.949C173.545 219.707 174.553 218.7 175.796 218.7H191.616C192.859 218.7 193.867 219.707 193.867 220.949V228.752C193.867 229.291 193.673 229.812 193.322 230.22L185.161 239.693C184.733 240.189 184.11 240.474 183.455 240.474H175.796C174.553 240.474 173.545 239.468 173.545 238.225V220.949Z" fill="#2B3B0A"/>
<path d="M197.181 184.001L206.748 116.521L179.735 146.034C179.172 147.346 176.921 152.669 176.921 167.965C176.921 167.965 178.61 199.184 197.181 184.001Z" fill="#235842"/>
<path d="M220.817 91.487V100.484M232.072 91.487V100.484" stroke="#1A4E38" stroke-width="3.6942"/>
<path d="M197.181 100.484H218.566C224.782 100.484 229.821 105.52 229.821 111.731V164.965C229.821 168.692 226.797 171.713 223.068 171.713H209.499V114.514C209.499 110.678 207.542 107.106 204.308 105.04L197.181 100.484Z" fill="#2B3B0A"/>
<path d="M225.319 164.59H214.064V179.211C220.28 179.211 225.319 174.176 225.319 167.964V164.59Z" fill="#2B3B0A"/>
<path d="M246.141 91.2158L246.704 110.897L251.768 215.492L252.87 220.626C255.45 232.659 254.28 245.193 249.517 256.542" stroke="#1A4E38" stroke-width="7.38709"/>
<path d="M176.921 244.442C176.921 243.2 177.929 242.193 179.172 242.193H292.851C294.094 242.193 295.102 243.2 295.102 244.442V259.063C295.102 260.305 294.094 261.312 292.851 261.312H179.172C177.929 261.312 176.921 260.305 176.921 259.063V244.442Z" fill="#2A5F49"/>
<path fill-rule="evenodd" clip-rule="evenodd" d="M177.484 242.192C177.484 241.882 177.736 241.63 178.047 241.63H293.976C294.286 241.63 294.539 241.882 294.539 242.192C294.539 242.503 294.286 242.755 293.976 242.755H178.047C177.736 242.755 177.484 242.503 177.484 242.192Z" fill="#1A4E38"/>
<path d="M174.67 99.9219C174.67 98.9902 175.426 98.2351 176.358 98.2351H217.44C219.305 98.2351 220.817 99.7456 220.817 101.609H176.358C175.426 101.609 174.67 100.854 174.67 99.9219Z" fill="#2B3B0A"/>
<path d="M174.564 109.546C178.205 101.87 186.815 97.8905 195.026 100.089C205.519 102.898 210.986 114.441 206.507 124.331L172.471 199.485C170.433 203.985 165.696 206.63 160.793 206.005L146.026 204.123C138.434 203.155 134.001 195.061 137.28 188.15L174.564 109.546Z" fill="#255340"/>
<path d="M191.894 160.327C194.644 158.964 197.98 160.054 199.392 162.778L208.711 180.751C210.11 183.45 209.11 186.772 206.452 188.251L160.832 213.642C154.155 217.358 145.726 214.803 142.24 208.007L139.049 201.785C135.616 195.09 138.323 186.883 145.067 183.54L191.894 160.327Z" fill="#255340"/>
<path d="M206.518 153.197L225.929 142.37C228.189 141.109 231.112 141.948 232.331 144.206L234.101 147.485L237.816 162.497C238.552 165.476 237.267 168.553 234.607 170.178L226.231 175.295C224.22 176.524 221.873 177.158 219.476 177.122L215.443 179.212L208.132 170.887L201.37 161.511L203.765 159.466L206.518 153.197Z" fill="#F7ABA6"/>
<path d="M206.054 154.602L206.296 152.591C206.437 151.423 206.835 150.301 207.462 149.305C208.458 147.725 209.98 146.545 211.761 145.975L221.87 142.736C223.932 142.075 226.185 142.397 227.979 143.609L228.049 143.657C228.158 143.73 228.233 143.843 228.259 143.971C228.749 146.406 227.37 148.829 225.026 149.653L207.545 155.797C206.758 156.074 205.954 155.429 206.054 154.602Z" fill="#F7ABA6"/>
<path d="M216.743 177.566L205.449 156.935C205.15 156.39 204.466 156.19 203.921 156.488L197.139 160.195C196.594 160.493 196.394 161.176 196.692 161.721L207.986 182.352C208.284 182.897 208.968 183.098 209.514 182.8L216.295 179.093C216.841 178.795 217.041 178.111 216.743 177.566Z" fill="#255340"/>
<path d="M209.986 35.6119C210.199 23.7262 219.219 13.8511 231.045 12.5572L236.721 11.9361C236.816 11.9257 236.912 11.9275 237.006 11.9412L242.657 12.765C254.429 14.4813 263.09 24.6732 262.877 36.5588L262.766 42.7549C262.755 43.376 262.242 43.8706 261.62 43.8594L210.98 42.9528C210.358 42.9416 209.863 42.4294 209.875 41.8084L209.986 35.6119Z" fill="#BD4C00"/>
<path fill-rule="evenodd" clip-rule="evenodd" d="M257.12 43.7792C257.741 43.7904 258.254 43.2958 258.265 42.6748L258.386 35.9462C258.595 24.2907 250.262 14.2265 238.766 12.2479L237.036 11.9501C236.986 11.9416 236.937 11.9364 236.886 11.9345C236.822 11.9323 236.758 11.9354 236.694 11.944L234.955 12.1796C223.394 13.7455 214.706 23.5053 214.498 35.1604L214.377 41.8894C214.366 42.51 214.86 43.0226 215.482 43.0338L257.12 43.7792ZM257.14 42.6548L257.261 35.9262C257.434 26.2204 251.39 17.6733 242.549 14.4189C247.575 17.7609 250.729 23.4977 250.616 29.7947L250.388 42.534L257.14 42.6548ZM222.483 29.2913C222.596 22.9939 225.953 17.3738 231.096 14.2139C222.144 17.1498 215.797 25.4749 215.623 35.1807L215.502 41.9093L222.254 42.0302L222.483 29.2913ZM223.608 29.3113L223.38 42.0505L230.132 42.1714L230.495 21.9333C230.548 18.9129 231.798 16.0891 233.891 14.0311C227.842 16.6163 223.729 22.5476 223.608 29.3113ZM239.762 14.1362C245.714 16.9362 249.612 23.0107 249.491 29.7748L249.262 42.5136L242.51 42.3928L242.873 22.1547C242.927 19.1345 241.78 16.2678 239.762 14.1362ZM241.385 42.3728L241.748 22.1347C241.813 18.4925 239.94 15.0983 236.842 13.2075C233.679 14.9862 231.685 18.3113 231.62 21.9533L231.257 42.1913L241.385 42.3728Z" fill="#D56011"/>
<path d="M233.486 43.356L209.854 42.9332L209.703 51.3666C211.317 50.596 218.498 51.6418 221.26 52.0375C221.745 52.1069 222.131 52.4779 222.218 52.9597L223.096 57.7933L224.784 57.8232C225.405 57.8344 225.893 57.3318 226.033 56.7267C226.723 53.7383 230.11 55.3454 232.199 52.3319C234.511 48.9985 233.486 43.356 233.486 43.356Z" fill="#241B14"/>
<path d="M262.846 38.257L209.955 37.3105C209.334 37.2994 208.821 37.7939 208.809 38.415L208.689 45.1617C208.677 45.7828 209.172 46.2953 209.794 46.3064L262.685 47.253C263.306 47.2641 263.819 46.7696 263.831 46.1484L263.951 39.4018C263.963 38.7807 263.468 38.2681 262.846 38.257Z" fill="#9F4000"/>
<path d="M224.194 55.5632C224.633 62.3201 221.626 62.2663 217.918 62.1997C214.209 62.1335 211.816 59.0689 211.883 55.3426C211.95 51.6164 214.451 48.6396 218.16 48.7062C221.868 48.7724 224.261 51.8369 224.194 55.5632Z" fill="#F7ABA6"/>
<path fill-rule="evenodd" clip-rule="evenodd" d="M216.446 52.7359C216.692 52.5461 217.046 52.5908 217.236 52.8365L220.159 56.609C220.35 56.8547 220.305 57.2077 220.059 57.398C219.813 57.5883 219.46 57.5432 219.269 57.2979L216.346 53.5249C216.156 53.2796 216.2 52.9262 216.446 52.7359Z" fill="#CE5E56"/>
<path d="M217.792 39.7005L213.291 39.62C212.669 39.6089 212.156 40.1034 212.145 40.7245L212.105 42.973C212.094 43.5941 212.588 44.1067 213.21 44.1178L217.711 44.1983C218.333 44.2094 218.846 43.7149 218.857 43.0938L218.897 40.8453C218.908 40.2242 218.413 39.7117 217.792 39.7005Z" fill="#FBBC91"/>
<path d="M238.542 12.7838C238.566 12.6772 238.54 12.626 238.542 12.5128C238.559 11.5813 237.817 10.8125 236.885 10.7959C235.953 10.7792 235.183 11.5208 235.167 12.4524C235.165 12.5656 235.174 12.6764 235.193 12.7838H238.542Z" fill="#BD4C00"/>
<path d="M249.083 59.376L250.64 65.5909L247.827 66.6651" stroke="#CE5E56" stroke-width="3.6942" stroke-linecap="round" stroke-linejoin="round"/>
<path d="M251.545 71.5859L243.519 70.9226C243.177 70.8943 242.889 71.1755 242.935 71.5153C243.199 73.4718 244.199 76.1132 247.128 75.891C249.994 75.6732 251.507 73.7123 252.004 72.2273C252.108 71.9158 251.873 71.6131 251.545 71.5859Z" fill="white"/>
<path fill-rule="evenodd" clip-rule="evenodd" d="M252.013 72.1982L242.948 71.6147C242.943 71.5816 242.939 71.5489 242.934 71.5162C242.888 71.1763 243.177 70.8947 243.519 70.923L251.545 71.5864C251.862 71.6127 252.093 71.8971 252.013 72.1982Z" fill="#D4726B"/>
<path d="M305.422 210.507L311.99 206.916C317.21 204.062 319.66 197.901 317.824 192.246L300.729 139.576L294.539 144.637L279.861 167.452C279.53 167.966 279.423 168.591 279.564 169.185L287.429 202.495C289.307 210.448 298.248 214.429 305.422 210.507Z" fill="#255340"/>
<path d="M271.178 148.291C271.006 147.397 271.39 146.486 272.152 145.986L279.693 141.033C282.965 138.884 287.119 138.589 290.662 140.253L294.853 142.221C296.789 143.13 298.041 145.056 298.086 147.192L298.503 166.992C298.57 170.2 295.941 172.815 292.731 172.732L282.838 172.477C281.254 172.436 279.912 171.302 279.61 169.748L277.575 159.287L275.936 159.789C274.656 160.181 273.32 159.377 273.066 158.065L271.178 148.291Z" fill="#F7ABA6"/>
<path d="M306.919 346.516L299.603 354.951L306.919 355.513M182.549 479.79H224.756M347.438 456.172H303.543M347.438 440.425H303.543" stroke="#8E4B0C" stroke-width="5.53999" stroke-linecap="round"/>
</svg>
